<?xml version="1.0" encoding="UTF-8" standalone="no"?>
<svg
   xmlns:dc="http://purl.org/dc/elements/1.1/"
   xmlns:cc="http://creativecommons.org/ns#"
   xmlns:rdf="http://www.w3.org/1999/02/22-rdf-syntax-ns#"
   xmlns:svg="http://www.w3.org/2000/svg"
   xmlns="http://www.w3.org/2000/svg"
   viewBox="0 0 374.96249 62.112499"
   height="62.112499"
   width="374.96249"
   xml:space="preserve"
   version="1.1"
   id="svg2"><metadata
     id="metadata8"><rdf:RDF><cc:Work
         rdf:about=""><dc:format>image/svg+xml</dc:format><dc:type
           rdf:resource="http://purl.org/dc/dcmitype/StillImage" /></cc:Work></rdf:RDF></metadata><defs
     id="defs6"><clipPath
       id="clipPath18"
       clipPathUnits="userSpaceOnUse"><path
         id="path20"
         d="M 0,496.914 0,0 l 2999.73,0 0,496.914 -2999.73,0 z" /></clipPath></defs><g
     transform="matrix(1.25,0,0,-1.25,0,62.1125)"
     id="g10"><g
       transform="scale(0.1,0.1)"
       id="g12"><g
         id="g14"><g
           clip-path="url(#clipPath18)"
           id="g16"><path
             id="path22"
             style="fill:#b20d35;fill-opacity:1;fill-rule:nonzero;stroke:none"
             d="m 42.9844,400.566 75.9256,-80.898 0,-67.402 -75.9256,80.644 0,67.656" /><path
             id="path24"
             style="fill:#f7c60b;fill-opacity:1;fill-rule:nonzero;stroke:none"
             d="m 42.9844,272.344 75.9256,-80.91 0,-67.391 -75.9256,80.645 0,67.656" /><path
             id="path26"
             style="fill:#160a06;fill-opacity:1;fill-rule:nonzero;stroke:none"
             d="m 2389.73,487.715 3.73,-6.211 -1.24,-67.09 c -9.93,0 -29.82,-7.461 -29.82,9.93 -3.72,11.191 -12.41,22.363 -23.61,29.824 -11.18,4.961 -22.37,1.242 -33.54,-4.969 -4.98,-8.703 -9.94,-18.633 -6.22,-29.816 39.76,-59.649 152.83,-100.653 106.85,-187.613 -16.15,-37.29 -57.15,-50.95 -98.15,-48.461 -23.61,1.242 -45.05,7.445 -64.92,16.156 -6.21,24.832 0.32,55.894 -3.42,80.762 8.7,4.957 21.13,2.476 31.05,1.238 7.48,-19.883 13.68,-42.254 36.05,-53.43 12.43,-3.738 29.82,-3.738 39.76,6.211 6.22,7.442 14.91,17.395 12.43,29.824 -12.43,42.246 -59.65,60.879 -88.24,94.426 -23.59,22.363 -36.02,53.426 -26.07,86.984 8.68,32.293 40.99,48.434 73.29,50.934 26.1,2.481 48.48,-4.961 72.07,-8.699 l 0,0" /><path
             id="path28"
             style="fill:#160a06;fill-opacity:1;fill-rule:nonzero;stroke:none"
             d="m 2197.15,485.234 0,-83.242 c -8.71,-4.98 -19.89,-2.492 -29.82,-2.492 -4.98,21.125 -17.39,48.449 -42.25,52.188 -16.15,-1.239 -31.06,-13.672 -38.51,-27.344 -19.9,-52.176 -28.58,-141.641 13.65,-188.856 9.95,-7.453 21.13,-12.429 33.56,-8.703 6.22,1.25 13.66,3.735 17.4,11.184 l -2.48,55.918 c -2.5,11.191 -13.68,4.968 -19.9,8.691 -1.24,11.192 -3.72,19.871 0,29.824 29.83,2.481 64.61,1.243 94.44,0 4.98,-7.453 2.49,-18.632 2.49,-27.324 -4.98,-7.461 -17.4,-1.262 -19.89,-11.191 l -0.3,-89.461 c -21.13,-16.156 -51.88,-19.875 -80.46,-21.117 -41.01,1.242 -80.76,26.078 -96.91,63.363 -29.83,64.605 -24.85,146.609 14.91,203.777 31.07,48.446 94.42,44.727 150.33,41.004 l 3.74,-6.219 0,0" /><path
             id="path30"
             style="fill:#160a06;fill-opacity:1;fill-rule:nonzero;stroke:none"
             d="m 1455.37,487.715 c 2.48,-9.942 6.2,-26.086 -1.24,-32.305 -7.46,0 -16.16,-2.48 -17.4,-11.18 21.12,-42.238 45.97,-82.011 73.3,-123 l 2.48,3.719 -1.24,118.031 c -1.24,6.219 -4.97,11.188 -11.18,12.43 -4.97,0 -11.18,-1.242 -14.9,3.719 1.24,8.711 -6.22,26.105 6.21,28.586 l 96.92,-1.242 c -2.49,-11.192 6.21,-24.844 -6.23,-31.063 -7.45,0 -17.39,-1.242 -19.87,-9.93 l 0,-258.449 c -11.18,-2.48 -24.85,-2.48 -36.03,0 -33.56,55.918 -65.85,113.067 -103.13,166.485 l -2.48,-3.719 0,-123.012 c 4.96,-8.687 16.15,-6.211 23.59,-8.687 3.74,-11.196 1.25,-18.633 0,-31.067 l -96.9,0 c -4.98,7.449 -2.49,18.633 -1.24,29.824 6.21,3.719 19.87,-1.242 22.35,9.93 l -2.48,218.695 c -3.73,14.911 -27.33,1.227 -26.09,19.872 2.48,7.449 -4.97,22.363 9.94,22.363 37.28,-1.242 69.58,1.238 105.62,0 l 0,0" /><path
             id="path32"
             style="fill:#160a06;fill-opacity:1;fill-rule:nonzero;stroke:none"
             d="m 1995.86,486.473 c 1.24,-11.192 3.72,-21.121 0,-31.063 -8.7,-1.242 -19.89,0 -23.61,-9.93 l 0,-258.449 c -8.69,-7.461 -26.1,-3.722 -36.03,-1.242 -36.03,54.66 -68.34,113.066 -104.38,167.727 l -3.72,-7.454 2.48,-119.277 c 3.73,-12.422 18.63,-2.488 24.86,-13.66 -2.49,-8.699 4.96,-23.613 -6.23,-27.336 l -94.42,1.242 c 0,9.942 -6.21,27.332 4.97,32.305 8.7,-2.481 18.32,2.48 17.08,11.184 l -0.93,213.71 c -1.24,6.219 -8.7,9.938 -14.91,9.938 -6.21,-1.238 -11.18,2.48 -11.18,8.691 0,8.703 -2.49,32.317 18.64,24.856 l 94.43,0 2.48,-2.481 -1.24,-29.824 c -6.21,-2.48 -17.4,0 -18.64,-11.18 l 7.46,-18.644 c 23.61,-34.785 41,-70.828 64.61,-105.613 l 3.73,3.738 0,122.996 c -6.23,12.422 -26.1,0 -27.34,16.152 l 1.24,22.375 c 33.54,2.481 67.11,2.481 100.65,1.239 l 0,0" /><path
             id="path34"
             style="fill:#160a06;fill-opacity:1;fill-rule:nonzero;stroke:none"
             d="m 1723.75,485.234 c -1.25,-9.953 7.46,-28.586 -6.22,-29.824 -7.45,-1.242 -17.39,-2.48 -18.64,-11.18 l 0.31,-218.695 c 4.97,-12.41 24.55,0 27.04,-13.648 -2.49,-9.946 3.72,-23.617 -7.46,-26.098 l -99.4,1.242 c -7.46,6.199 -3.73,21.114 -3.73,29.824 7.45,3.719 21.12,0 24.85,11.18 l 1.24,218.672 c -3.72,9.941 -18.64,6.223 -26.09,9.941 -2.49,8.704 -3.73,22.364 0,29.825 38.52,-1.239 72.07,3.722 108.1,-1.239 l 0,0" /><path
             id="path36"
             style="fill:#160a06;fill-opacity:1;fill-rule:nonzero;stroke:none"
             d="m 837.832,485.234 c 3.73,-7.461 2.488,-19.882 1.246,-28.586 -7.453,-4.96 -21.125,0 -26.09,-12.418 l 0,-214.96 c 3.727,-11.172 14.903,-11.172 23.598,-13.657 1.246,-7.468 2.492,-18.64 0,-26.101 -31.059,-1.242 -67.09,-3.723 -99.395,-1.242 -2.488,8.703 -3.73,19.875 0,28.585 6.207,2.481 16.153,1.243 19.879,9.93 1.242,48.469 1.242,77.031 -2.484,129.231 l -7.453,-17.414 -38.52,-151.571 c -8.695,-6.211 -21.125,-3.722 -29.82,-1.242 -19.887,50.938 -31.063,106.856 -48.457,160.273 l -3.727,3.735 -1.25,-123.012 c 3.739,-11.172 18.645,-4.969 23.61,-13.66 -1.239,-8.699 2.48,-18.645 -3.727,-26.094 l -91.707,0 c -8.695,4.961 -3.726,17.395 -4.976,26.094 6.214,6.211 19.882,2.488 23.609,12.41 l 2.258,221.172 c -6.219,8.703 -17.406,4.981 -24.86,8.703 0,8.699 -4.961,26.094 4.977,29.824 l 124.25,-1.242 -1.242,-29.824 c -7.457,-1.238 -19.875,-4.969 -17.395,-16.152 12.422,-39.754 18.637,-80.758 34.789,-119.286 l 4.973,4.981 c 8.695,42.234 23.605,79.519 27.328,122.996 -4.961,7.461 -19.875,6.223 -14.906,18.645 2.488,6.21 -6.207,22.363 8.695,19.882 39.762,1.239 77.035,1.239 116.797,0 l 0,0" /><path
             id="path38"
             style="fill:#160a06;fill-opacity:1;fill-rule:nonzero;stroke:none"
             d="m 2988.64,485.234 c 3.72,-26.105 2.48,-45.976 1.24,-70.82 -9.95,0 -33.57,-8.703 -33.57,9.93 -12.41,24.855 -40.98,22.363 -65.85,22.363 -12.41,-2.477 -7.44,-13.652 -8.69,-22.363 l 1.25,-58.399 c 9.92,-6.211 24.84,-4.968 34.79,-1.238 9.94,8.699 0,19.871 11.18,26.094 8.69,-1.242 19.88,2.48 27.32,-3.723 l 0,-91.949 c -8.69,-4.965 -18.63,-1.242 -29.8,-2.484 -4.98,8.695 1.24,22.367 -12.43,27.328 -9.94,-1.243 -26.1,4.976 -31.06,-6.203 l 2.48,-84.5 c 22.36,-1.235 52.18,-8.696 68.33,11.179 7.46,9.949 12.43,22.371 14.92,34.805 8.7,4.973 19.89,2.48 28.58,1.238 2.48,-31.062 2.48,-54.676 0,-86.98 -63.37,-4.961 -129.22,-2.481 -193.83,-2.481 -4.98,11.172 -2.48,18.633 -2.48,28.582 7.44,4.961 23.59,2.485 24.83,16.157 0,85.718 5.91,135.425 0.94,213.71 -4.98,11.168 -23.29,4.969 -29.51,13.649 1.24,9.953 -6.21,31.066 11.18,26.105 58.41,1.239 120.53,1.239 180.18,0 l 0,0" /><path
             id="path40"
             style="fill:#160a06;fill-opacity:1;fill-rule:nonzero;stroke:none"
             d="m 1013.03,266.555 c -4.97,-18.633 -16.155,-37.285 -36.038,-42.258 -14.914,-2.481 -26.09,4.973 -36.023,13.672 -29.824,38.523 -27.34,93.191 -24.852,135.437 4.961,28.586 13.664,63.371 43.485,74.543 16.152,2.5 28.578,-2.469 37.273,-13.652 32.305,-54.68 31.065,-109.348 16.155,-167.742 z m 49.69,166.5 c -14.9,24.836 -39.75,50.937 -67.083,55.898 -44.735,13.672 -85.735,-6.211 -110.582,-38.504 -44.735,-60.89 -42.25,-154.082 -4.977,-218.679 19.879,-27.344 49.703,-52.2 86.977,-52.2 33.545,1.25 62.125,13.66 84.495,41.004 42.24,64.61 42.24,145.371 11.17,212.481" /><path
             id="path42"
             style="fill:#160a06;fill-opacity:1;fill-rule:nonzero;stroke:none"
             d="m 1244.14,372.168 c -4.97,-16.152 -19.89,-21.133 -32.3,-24.856 -9.95,2.485 -23.61,-3.726 -26.1,8.704 l 1.24,85.722 3.73,2.492 c 17.39,1.25 36.03,1.25 48.46,-12.433 12.42,-16.152 13.67,-40.996 4.97,-59.629 z m 94.43,-175.195 c -39.76,29.812 -62.13,73.3 -78.28,116.797 14.91,12.421 36.04,21.113 43.48,43.488 12.43,27.32 11.19,65.847 -4.96,91.941 -9.95,16.153 -28.58,28.574 -45.97,34.793 -49.7,2.481 -101.89,2.481 -151.59,0 l 0,-24.863 c 6.21,-8.68 24.85,-2.481 26.09,-18.633 l 2.48,-208.726 c -2.48,-14.915 -17.39,-11.196 -26.08,-16.157 -1.24,-9.949 -2.49,-19.89 3.72,-29.824 l 98.16,0 c 11.19,4.965 4.97,21.113 6.22,31.066 -6.22,3.719 -16.17,0 -22.37,6.204 -7.46,24.863 -4.97,57.168 -1.24,82.019 3.72,2.461 9.93,2.461 12.42,-1.262 19.88,-57.144 69.58,-120.507 132.94,-132.937 7.46,6.211 4.98,16.152 4.98,26.094" /><path
             id="path44"
             style="fill:#160a06;fill-opacity:1;fill-rule:nonzero;stroke:none"
             d="m 2714.04,252.883 c -9.95,-21.113 -34.8,-27.348 -58.41,-27.348 l -4.96,4.985 0,212.46 c 8.69,2.5 23.59,2.5 32.3,0 11.19,-6.203 24.86,-11.183 29.82,-24.835 26.1,-45.977 24.84,-119.29 1.25,-165.262 z m 52.18,185.133 c -13.68,23.613 -39.76,42.246 -67.09,45.976 -43.5,2.481 -89.47,2.481 -132.96,0 l -1.24,-18.64 c -1.24,-6.223 3.74,-13.664 12.43,-11.184 13.66,-1.238 11.18,-12.43 14.9,-22.371 l 0,-203.762 c -1.24,-14.91 -18.63,-6.219 -24.85,-16.148 -1.24,-7.461 -1.24,-17.407 1.26,-24.856 42.23,-1.242 88.2,0 131.7,1.239 29.82,4.96 54.67,24.855 70.83,49.699 31.06,59.648 29.82,141.648 -4.98,200.047" /><path
             id="path46"
             style="fill:#160a06;fill-opacity:1;fill-rule:nonzero;stroke:none"
             d="m 630.336,131.113 c 7.457,-7.453 2.48,-22.363 3.723,-32.3044 -2.481,-3.7188 -7.45,-3.7188 -11.176,-2.4805 -4.977,6.1989 -8.699,19.8709 -19.887,18.6329 -9.937,2.48 -17.394,-7.449 -19.875,-14.91 -8.695,-23.6057 -7.457,-52.1799 3.727,-74.5432 6.211,-7.4609 16.148,-8.6992 24.847,-6.2226 12.426,4.9726 8.696,26.0976 23.61,19.875 1.242,-11.1836 2.488,-19.875 -1.246,-29.81254 C 621.641,0.652344 602.996,0.652344 586.848,4.375 c -24.852,7.4492 -32.305,33.5469 -34.793,55.918 0,26.0859 6.215,54.668 31.066,67.102 13.66,7.457 31.063,2.476 47.215,3.718 l 0,0" /><path
             id="path48"
             style="fill:#160a06;fill-opacity:1;fill-rule:nonzero;stroke:none"
             d="m 2594.75,126.145 0,-32.3052 c -18.64,-8.7031 -14.91,31.0622 -37.27,17.3982 -19.88,-19.8825 -18.64,-54.6677 -9.95,-79.5192 3.72,-7.461 11.19,-12.4336 17.4,-13.6719 4.98,0 12.43,1.2383 11.18,7.4609 0,11.1719 3.73,24.8438 -8.7,28.5625 l 1.26,8.7109 c 11.17,2.4844 24.84,1.2422 37.26,0 2.48,-3.7382 3.73,-13.6718 -3.72,-14.9101 -1.24,-2.4883 -3.74,-2.4883 -4.98,-4.9805 6.22,-9.9297 3.74,-23.6054 1.24,-34.78513 -14.89,-9.92969 -40.99,-11.19141 -55.91,-1.25 -27.33,18.65233 -29.81,57.16793 -22.37,85.74223 4.98,21.1253 22.37,34.7973 42.26,38.5153 11.18,-1.242 27.33,4.961 32.3,-4.968 l 0,0" /><path
             id="path50"
             style="fill:#160a06;fill-opacity:1;fill-rule:nonzero;stroke:none"
             d="m 1373.35,129.871 c 2.49,-2.476 3.73,-6.211 2.49,-9.93 l -9.94,-6.218 1.25,-90.7152 c 6.2,-4.9609 14.91,-1.2383 21.12,0 11.18,2.5 13.67,22.375 26.09,13.6719 -1.24,-11.1719 -4.97,-21.1133 -8.69,-31.06642 C 1383.31,3.13672 1357.2,4.375 1334.84,4.375 c -2.49,3.73047 -2.49,6.2227 -1.25,9.9492 8.7,1.2422 8.7,12.4219 8.7,17.3946 l -1.24,80.7612 c -4.97,4.961 -14.91,6.219 -11.18,14.915 12.42,4.957 29.82,2.476 43.48,2.476 l 0,0" /><path
             id="path52"
             style="fill:#160a06;fill-opacity:1;fill-rule:nonzero;stroke:none"
             d="m 1777.17,128.633 c 1.25,-2.488 3.73,-8.692 -1.24,-9.934 -6.21,-2.5 -9.94,-7.461 -8.7,-14.91 l 0,-82.0195 c 8.7,-6.2031 17.39,1.2383 26.1,2.4883 8.7,3.7188 12.43,23.6133 23.6,9.9414 l -12.42,-29.8242 -70.82,0 c 0,3.73047 -1.24,7.4492 1.24,9.9492 l 6.21,4.961 c 3.73,36.0273 1.25,62.1289 0,95.6758 -6.21,2.48 -11.18,7.461 -7.45,13.672 13.66,1.238 29.82,1.238 43.48,0 l 0,0" /><path
             id="path54"
             style="fill:#160a06;fill-opacity:1;fill-rule:nonzero;stroke:none"
             d="m 2200.87,127.395 c 6.21,-6.235 3.72,-17.407 2.48,-26.106 -3.72,-2.4804 -8.68,-3.7226 -11.18,-1.238 -2.48,7.461 -9.93,8.699 -14.91,12.429 -6.21,-1.242 -17.39,3.719 -18.63,-4.968 2.48,-9.9456 -6.21,-28.5784 7.46,-29.8284 11.17,-2.4805 9.93,18.6445 22.35,8.6953 2.49,-11.1758 1.25,-24.8477 1.25,-37.2695 -3.73,-2.4766 -8.69,-1.2383 -12.43,0 0,4.9609 -4.97,7.4609 -9.93,9.9336 -3.72,0 -7.46,-3.7305 -8.7,-7.4492 1.24,-11.1954 -4.97,-26.086 4.98,-32.3086 9.93,-1.2383 19.87,0 26.08,7.4609 3.72,4.9727 4.98,14.9141 13.66,13.6523 7.48,-4.9609 3.73,-16.1406 4.98,-24.832 -1.25,-3.7422 2.5,-14.914056 -7.46,-13.67187 l -72.07,0 c -3.72,2.48047 -6.21,6.21094 -4.96,9.92967 l 8.68,7.461 -1.24,91.9528 c -3.72,4.961 -12.41,4.961 -8.69,12.422 l 0,2.485 c 26.11,3.726 50.95,2.488 78.28,1.25 l 0,0" /><path
             id="path56"
             style="fill:#160a06;fill-opacity:1;fill-rule:nonzero;stroke:none"
             d="m 989.418,19.2852 c -14.906,-3.7188 -19.883,11.1914 -23.602,21.1132 -8.703,23.625 -7.457,55.9297 14.907,73.3246 9.941,2.476 17.398,-4.973 22.367,-13.672 4.97,-28.5862 13.67,-63.3713 -13.672,-80.7658 z M 1018,117.441 c -11.18,11.192 -23.605,16.153 -39.758,14.911 -14.914,-3.719 -29.824,-13.653 -34.797,-27.34 -11.175,-29.8089 -9.933,-64.6136 9.938,-89.4456 12.433,-9.95312 28.586,-18.65234 45.976,-12.42968 17.401,3.71875 26.101,21.12108 32.311,37.26168 3.73,24.8672 4.97,57.168 -13.67,77.0426" /><path
             id="path58"
             style="fill:#160a06;fill-opacity:1;fill-rule:nonzero;stroke:none"
             d="m 2541.54,485.234 c -1.24,-9.953 7.46,-28.586 -6.21,-29.824 -7.46,-1.242 -17.4,-2.48 -18.64,-11.18 L 2517,225.535 c 4.98,-12.41 24.54,0 27.02,-13.648 -2.48,-9.946 3.74,-23.617 -7.44,-26.098 l -99.41,1.242 c -7.46,6.199 -3.73,21.114 -3.73,29.824 7.46,3.719 21.14,0 24.86,11.18 l 1.24,218.672 c -3.72,9.941 -18.64,6.223 -26.1,9.941 -2.49,8.704 -3.73,22.364 0,29.825 38.53,-1.239 72.07,3.722 108.1,-1.239 l 0,0" /><path
             id="path60"
             style="fill:#160a06;fill-opacity:1;fill-rule:nonzero;stroke:none"
             d="m 2992.28,127.395 c 6.21,-6.235 3.73,-17.407 2.49,-26.106 -3.73,-2.4804 -8.71,-3.7226 -11.19,-1.238 -2.48,7.461 -9.93,8.699 -14.91,12.429 -6.2,-1.242 -17.4,3.719 -18.64,-4.968 2.48,-9.9456 -6.21,-28.5784 7.47,-29.8284 11.17,-2.4805 9.93,18.6445 22.36,8.6953 2.48,-11.1758 1.24,-24.8477 1.24,-37.2695 -3.73,-2.4766 -8.71,-1.2383 -12.43,0 0,4.9609 -4.96,7.4609 -9.93,9.9336 -3.74,0 -7.47,-3.7305 -8.71,-7.4492 1.24,-11.1954 -4.96,-26.086 4.97,-32.3086 9.95,-1.2383 19.89,0 26.1,7.4609 3.72,4.9727 4.96,14.9141 13.67,13.6523 7.44,-4.9609 3.72,-16.1406 4.96,-24.832 -1.24,-3.7422 2.48,-14.914056 -7.45,-13.67187 l -72.07,0 c -3.72,2.48047 -6.2,6.21094 -4.96,9.92967 l 8.69,7.461 -1.25,91.9528 c -3.72,4.961 -12.42,4.961 -8.68,12.422 l 0,2.485 c 26.08,3.726 50.94,2.488 78.27,1.25 l 0,0" /><path
             id="path62"
             style="fill:#4e7a98;fill-opacity:1;fill-rule:nonzero;stroke:none"
             d="m 42.9844,336.809 75.9256,-80.903 0,-67.39 -75.9256,80.632 0,67.661" /><path
             id="path64"
             style="fill:#160a06;fill-opacity:1;fill-rule:nonzero;stroke:none"
             d="m 421.301,70.3906 c 8.582,-17.8242 26.586,-12.1484 37.679,-14.7851 l 2.114,-2.1094 0,-44.50391 C 460.035,6.875 458.98,4.76562 456.34,4.76562 l -158.543,0.13672 -3.695,3.69922 -0.215,44.89454 3.91,2.6367 c 11.09,1.582 16.683,-0.4023 25.133,6.9922 11.226,4.6289 7.929,16.5039 8,23.6445 l -0.321,212.8475 -1.054,1.047 -4.219,-10.566 C 299.457,195.039 276.215,102.07 250.336,7.53906 l -3.168,-3.16406 -47.008,0 -3.695,5.28125 C 169.531,108.945 146.5,216.699 119.57,315.984 L 43.0117,397.84 c 0,13.867 1.3477,30.109 -12.9101,36.445 -8.4493,3.164 -19.0118,2.11 -27.99222,4.219 L 0,441.152 0.253906,487.098 3.69531,489.207 203.855,489.023 c 2.118,-0.539 4.231,-2.121 4.231,-4.757 0,-14.786 0.527,-30.438 -0.524,-45.223 -7.929,-4.758 -19.011,-1.063 -26.406,-7.93 -7.402,-7.922 -2.644,-19.015 -1.59,-28.515 16.375,-62.325 33.278,-124.114 50.176,-185.899 1.047,-1.594 1.047,-5.82 3.696,-4.765 l 3.164,8.984 48.593,189.598 c 0.528,5.285 1.582,12.152 -1.062,16.906 -5.27,8.445 -15.836,7.39 -24.285,10.027 l -1.59,1.594 0,47.527 2.644,2.637 c 17.207,0.332 199.114,0 199.114,0 l 2.636,-3.164 0,-46.473 -3.699,-2.648 c -13.734,-2.11 -32.215,2.121 -37.504,-13.731 l -0.148,-18.086 0,-334.7144" /><path
             id="path66"
             style="fill:#160a06;fill-opacity:1;fill-rule:nonzero;stroke:none"
             d="m 118.91,126.094 c 0,-36.4143 0.383,-40.9885 1.789,-59.7385 5.801,-12.1289 20.063,-7.9102 31.16,-10.5469 l 2.106,-2.1172 0,-44.89062 C 152.914,6.67969 151.859,4.57031 149.219,4.57031 L 3.97656,5.10547 0.277344,8.80078 0.457031,53.6914 3.97656,56.3398 c 11.08594,1.5821 23.76174,-1.0586 32.21484,6.336 6.8711,7.3906 7.1328,16.8828 6.8711,26.9336 -0.8516,31.7856 -0.3516,118.8086 -0.3516,118.8086 l 76.1991,-82.324 0,0" /></g></g></g></g></svg>