<?xml version="1.0" encoding="utf-8"?>
<!-- Generator: Adobe Illustrator 16.0.4, SVG Export Plug-In . SVG Version: 6.00 Build 0)  -->
<!DOCTYPE svg PUBLIC "-//W3C//DTD SVG 1.1//EN" "http://www.w3.org/Graphics/SVG/1.1/DTD/svg11.dtd">
<svg version="1.1" id="Layer_1" xmlns="http://www.w3.org/2000/svg" xmlns:xlink="http://www.w3.org/1999/xlink" x="0px" y="0px"
	 width="50px" height="50px" viewBox="0 0 50 50" enable-background="new 0 0 50 50" xml:space="preserve">
<g>
	<path d="M20.752,10.186c-0.051-0.119-0.212-0.181-0.485-0.185s-0.434,0.057-0.485,0.185c-0.179,0.408-0.366,1.068-0.562,1.978
		c-0.196,0.911-0.587,1.434-1.174,1.57c-0.298,0.025-0.672,0.041-1.123,0.044c-0.451,0.004-0.94,0.006-1.468,0.006
		c-0.587,0-1.138-0.025-1.653-0.077c-0.515-0.051-0.908-0.208-1.18-0.472c-0.562-0.646-1.008-1.372-1.34-2.176
		c-0.332-0.804-0.596-1.669-0.791-2.597c-0.11-0.408,0.06-0.633,0.51-0.676c0.783-0.34,1.785-0.474,3.005-0.402
		s2.395,0.286,3.554,0.402c-1.321-0.132,1.812,0.03,2.119,0.906c0.06,0.085,0.253,0.127,0.581,0.127s0.525-0.042,0.594-0.127
		c0.297-0.876,3.334-1.121,2.105-0.906c1.147-0.201,2.333-0.33,3.554-0.402c1.222-0.072,2.228,0.062,3.019,0.402
		c0.451,0.043,0.621,0.268,0.511,0.676c-0.204,0.928-0.475,1.793-0.811,2.597c-0.336,0.804-0.78,1.529-1.334,2.176
		c-0.28,0.264-0.678,0.421-1.192,0.472c-0.515,0.051-1.062,0.077-1.641,0.077c-0.527,0-1.019-0.002-1.474-0.006
		c-0.456-0.004-0.828-0.019-1.117-0.044c-0.587-0.136-0.977-0.659-1.168-1.57C21.116,11.254,20.931,10.594,20.752,10.186z
		 M17.664,8.922c-0.162-0.042-0.548-0.112-1.161-0.21c-0.613-0.098-1.259-0.17-1.94-0.217s-1.293-0.036-1.837,0.032
		c-0.545,0.068-0.821,0.243-0.83,0.523c0.008,0.383,0.206,1.074,0.593,2.074s0.832,1.529,1.333,1.589
		c0.664,0.077,1.387,0.117,2.17,0.121c0.782,0.004,1.327-0.074,1.633-0.236c0.391-0.272,0.664-0.902,0.817-1.889
		C18.595,9.722,18.336,9.126,17.664,8.922z M22.858,8.922c-0.681,0.204-0.944,0.8-0.792,1.787c0.153,0.987,0.43,1.617,0.83,1.889
		c0.307,0.162,0.851,0.24,1.634,0.236c0.783-0.004,1.505-0.044,2.169-0.121c0.493-0.06,0.934-0.589,1.321-1.589
		c0.387-1,0.593-1.691,0.618-2.074c-0.025-0.281-0.311-0.455-0.854-0.523c-0.545-0.068-1.157-0.079-1.838-0.032
		s-1.327,0.119-1.94,0.217C23.394,8.81,23.011,8.88,22.858,8.922z"/>
</g>
</svg>
