<?xml version="1.0" encoding="utf-8"?>
<!-- Generator: Adobe Illustrator 16.0.4, SVG Export Plug-In . SVG Version: 6.00 Build 0)  -->
<!DOCTYPE svg PUBLIC "-//W3C//DTD SVG 1.1//EN" "http://www.w3.org/Graphics/SVG/1.1/DTD/svg11.dtd">
<svg version="1.1" id="Layer_1" xmlns="http://www.w3.org/2000/svg" xmlns:xlink="http://www.w3.org/1999/xlink" x="0px" y="0px"
	 width="1000px" height="400px" viewBox="0 0 1000 400" enable-background="new 0 0 1000 400" xml:space="preserve">
<g>
	<path fill="#6D0020" d="M213.763,167.598v-13.242h-4.336v-3.633h11.279l4.922,12.217l4.834,12.275l9.902-24.492h11.426v3.721
		h-4.307v13.154v13.242h4.307v3.662h-12.539v-3.721h3.896v-26.25l-6.123,15.117l-6.035,15.146h-1.23l-6.035-15.146l-6.035-15.088
		v26.25h3.896v3.691h-12.158v-3.721h4.336V167.598z"/>
	<path fill="#6D0020" d="M254.369,172.725c0-6.768,4.834-12.217,12.51-12.217c7.617,0,12.48,5.449,12.48,12.217
		s-4.893,12.334-12.539,12.334C259.203,185.059,254.369,179.492,254.369,172.725z M274.671,172.725c0-4.775-3.018-8.467-7.852-8.467
		c-4.775,0-7.793,3.691-7.793,8.467s3.018,8.32,7.793,8.32C271.654,181.045,274.671,177.5,274.671,172.725z"/>
	<path fill="#6D0020" d="M282.611,180.898h4.717v-16.465h-4.893v-3.516h8.291c0,0,0.146,4.6,0.205,5.127
		c1.582-3.75,4.512-5.537,7.822-5.537c0.439,0,3.486,0.117,3.486,0.117l-0.146,4.102c-0.088-0.059-2.578-0.088-2.871-0.088
		c-5.771,0-7.5,3.398-7.5,8.73v7.559h5.156v3.574h-14.268V180.898z"/>
	<path fill="#6D0020" d="M304.876,180.898h4.189v-16.465h-4.365v-3.516h8.672c0,0,0.059,2.549,0.117,3.047
		c3.018-2.344,5.391-3.457,8.291-3.457c4.307,0,6.943,2.9,6.943,7.529c0,0.439-0.088,12.861-0.088,12.861l4.248,0.059v3.545h-11.777
		v-3.516h3.223v-11.338c0-3.457-0.879-5.391-3.662-5.391c-2.666,0-5.098,1.758-7.178,4.131v12.539h4.248v3.574h-12.861V180.898z"/>
	<path fill="#6D0020" d="M334.964,180.869h3.955v-16.436h-3.955v-3.516h8.32v20.01h3.984v3.574h-12.305V180.869z M341.058,150.723
		c1.494,0,2.695,1.113,2.695,2.549s-1.201,2.549-2.695,2.549s-2.666-1.113-2.666-2.549S339.564,150.723,341.058,150.723z"/>
	<path fill="#6D0020" d="M349.994,180.898h4.189v-16.465h-4.365v-3.516h8.672c0,0,0.059,2.549,0.117,3.047
		c3.018-2.344,5.391-3.457,8.291-3.457c4.307,0,6.943,2.9,6.943,7.529c0,0.439-0.088,12.861-0.088,12.861l4.248,0.059v3.545h-11.777
		v-3.516h3.223v-11.338c0-3.457-0.879-5.391-3.662-5.391c-2.666,0-5.098,1.758-7.178,4.131v12.539h4.248v3.574h-12.861V180.898z"/>
	<path fill="#6D0020" d="M382.865,192.324l2.754-3.047c1.992,1.436,4.365,2.139,6.738,2.139c3.486,0,7.91-1.758,7.998-7.002
		c0-0.117-0.088-2.52-0.088-2.637c-1.641,1.523-5.303,2.725-8.496,2.725c-7.266,0-11.719-5.215-11.719-11.484
		c0-6.768,4.658-12.51,11.895-12.51c3.135,0,5.859,1.055,8.291,3.223c0.029,0,0.088-2.812,0.088-2.812h8.76v3.516l-4.424,0.088
		c0,0,0.029,17.432,0.029,18.311c0,9.287-6.533,12.217-12.715,12.217C388.343,195.049,385.619,194.258,382.865,192.324z
		 M400.384,174.57c0-0.059,0-3.545,0-3.662c-0.146-3.721-3.457-6.533-7.734-6.533c-4.922,0-7.939,3.838-7.939,8.525
		c0,4.395,2.842,7.939,7.852,7.939C396.751,180.84,400.384,178.057,400.384,174.57z"/>
	<path fill="#6D0020" d="M411.927,176.797h3.779c-0.029,0.117-0.029,0.234-0.029,0.381c0,2.725,2.549,4.395,6.182,4.395
		c3.369,0,5.361-1.26,5.361-3.428c0-2.432-2.109-2.93-5.215-3.34c-4.219-0.557-10.137-1.846-10.137-7.471
		c0-3.896,3.428-6.826,8.701-6.826c2.285,0,4.424,0.498,5.947,1.23c0.029,0.029,0.146-0.82,0.146-0.82h3.691v7.5h-3.691
		c0,0-0.088-1.641-0.088-1.963c-1.377-1.67-3.281-2.52-5.83-2.52c-2.871,0-4.746,1.23-4.746,3.223c0,2.607,3.574,2.9,7.705,3.574
		c4.336,0.732,7.998,2.314,7.998,7.09c0,4.307-3.633,7.236-9.346,7.236c-2.695,0-4.775-0.527-6.533-1.729l-0.059,1.172h-3.838
		V176.797z"/>
	<path fill="#6D0020" d="M435.101,180.869h3.955v-16.436h-3.955v-3.516h8.32v20.01h3.984v3.574h-12.305V180.869z M441.195,150.723
		c1.494,0,2.695,1.113,2.695,2.549s-1.201,2.549-2.695,2.549s-2.666-1.113-2.666-2.549S439.701,150.723,441.195,150.723z"/>
	<path fill="#6D0020" d="M474.359,150.723v30.234h4.453v3.545h-8.906l-0.029-2.9c-2.49,2.402-5.127,3.457-8.379,3.457
		c-6.064,0-11.748-4.248-11.748-12.275c0-6.621,4.629-12.275,11.836-12.275c3.34,0,6.123,1.084,8.438,3.105
		c0-0.703-0.059-9.258-0.059-9.258l-4.688-0.088v-3.545H474.359z M470.023,174.16c0-0.146-0.029-3.545-0.029-3.662
		c-0.41-3.838-3.457-6.445-7.793-6.445c-4.775,0-7.793,3.779-7.793,8.643c0,5.098,2.871,8.701,7.852,8.701
		C466.83,181.396,470.023,178.35,470.023,174.16z"/>
	<path fill="#6D0020" d="M495.628,173.867l-10.02-0.059c0.615,4.541,3.369,7.588,8.408,7.588c3.047,0,5.947-1.113,7.735-3.252
		l3.75,1.641c-2.256,3.34-6.417,5.273-11.602,5.273c-8.115,0-13.096-5.508-13.096-12.334c0-7.148,5.596-12.217,12.979-12.217
		c7.764,0,11.719,5.977,11.719,12.803c0,0.146,0,0.322,0,0.498L495.628,173.867z M493.607,170.82h7.676
		c-0.616-3.721-3.165-6.943-7.442-6.943c-4.717,0-7.441,2.959-8.115,6.943H493.607z"/>
	<path fill="#6D0020" d="M526.01,167.598v-13.242h-4.336v-3.633h11.279l4.922,12.217l4.834,12.275l9.902-24.492h11.426v3.721h-4.307
		v13.154v13.242h4.307v3.662h-12.539v-3.721h3.896v-26.25l-6.123,15.117l-6.035,15.146h-1.23l-6.035-15.146l-6.035-15.088v26.25
		h3.896v3.691h-12.158v-3.721h4.336V167.598z"/>
	<path fill="#6D0020" d="M581.381,173.867l-10.02-0.059c0.615,4.541,3.369,7.588,8.408,7.588c3.047,0,5.947-1.113,7.734-3.252
		l3.75,1.641c-2.256,3.34-6.416,5.273-11.602,5.273c-8.115,0-13.096-5.508-13.096-12.334c0-7.148,5.596-12.217,12.979-12.217
		c7.764,0,11.719,5.977,11.719,12.803c0,0.146,0,0.322,0,0.498L581.381,173.867z M579.359,170.82h7.676
		c-0.615-3.721-3.164-6.943-7.441-6.943c-4.717,0-7.441,2.959-8.115,6.943H579.359z"/>
	<path fill="#6D0020" d="M594.77,180.898h4.189v-16.465h-4.365v-3.516h8.672c0,0,0.059,2.549,0.117,3.047
		c3.018-2.344,5.391-3.457,8.291-3.457c4.307,0,6.943,2.9,6.943,7.529c0,0.439-0.088,12.861-0.088,12.861l4.248,0.059v3.545H611
		v-3.516h3.223v-11.338c0-3.457-0.879-5.391-3.662-5.391c-2.666,0-5.098,1.758-7.178,4.131v12.539h4.248v3.574H594.77V180.898z"/>
	<path fill="#6D0020" d="M624.154,160.918h3.721v-4.922l4.336-3.574v8.496h4.775v3.574h-4.775v6.24c0,1.201,0,7.734,0.117,8.145
		c0.088,1.611,0.996,2.168,2.373,2.168c0.674,0,1.465-0.146,2.285-0.41v3.721c-1.025,0.264-2.168,0.469-3.164,0.469
		c-3.369,0-5.742-1.465-5.889-5.625c0,0-0.146-7.09-0.146-8.232v-6.475h-3.633V160.918z"/>
	<path fill="#6D0020" d="M640.268,172.725c0-6.768,4.834-12.217,12.51-12.217c7.617,0,12.48,5.449,12.48,12.217
		s-4.893,12.334-12.539,12.334C645.102,185.059,640.268,179.492,640.268,172.725z M660.57,172.725c0-4.775-3.018-8.467-7.852-8.467
		c-4.775,0-7.793,3.691-7.793,8.467s3.018,8.32,7.793,8.32C657.553,181.045,660.57,177.5,660.57,172.725z"/>
	<path fill="#6D0020" d="M668.51,180.898h4.717v-16.465h-4.893v-3.516h8.291c0,0,0.146,4.6,0.205,5.127
		c1.582-3.75,4.512-5.537,7.822-5.537c0.439,0,3.486,0.117,3.486,0.117l-0.146,4.102c-0.088-0.059-2.578-0.088-2.871-0.088
		c-5.771,0-7.5,3.398-7.5,8.73v7.559h5.156v3.574H668.51V180.898z"/>
	<path fill="#6D0020" d="M690.805,176.797h3.779c-0.029,0.117-0.029,0.234-0.029,0.381c0,2.725,2.549,4.395,6.182,4.395
		c3.369,0,5.361-1.26,5.361-3.428c0-2.432-2.109-2.93-5.215-3.34c-4.219-0.557-10.137-1.846-10.137-7.471
		c0-3.896,3.428-6.826,8.701-6.826c2.285,0,4.424,0.498,5.947,1.23c0.029,0.029,0.146-0.82,0.146-0.82h3.691v7.5h-3.691
		c0,0-0.088-1.641-0.088-1.963c-1.377-1.67-3.281-2.52-5.83-2.52c-2.871,0-4.746,1.23-4.746,3.223c0,2.607,3.574,2.9,7.705,3.574
		c4.336,0.732,7.998,2.314,7.998,7.09c0,4.307-3.633,7.236-9.346,7.236c-2.695,0-4.775-0.527-6.533-1.729l-0.059,1.172h-3.838
		V176.797z"/>
	<path fill="#6D0020" d="M712.865,180.898h4.453v-13.301v-13.33h-4.395v-3.545h8.789c0,0-0.029,11.631-0.029,12.51
		c2.578-1.846,5.186-2.725,8.027-2.725c4.658,0,7.207,2.666,7.207,7.705c0,0.381-0.029,12.686-0.029,12.686l4.219,0.059v3.545
		h-11.543v-3.545h2.988v-11.924c0-2.695-0.762-5.098-3.809-5.098c-2.109,0-4.746,0.967-7.061,2.666v14.326h4.248v3.574h-13.066
		V180.898z"/>
	<path fill="#6D0020" d="M743.188,180.869h3.955v-16.436h-3.955v-3.516h8.32v20.01h3.984v3.574h-12.305V180.869z M749.281,150.723
		c1.494,0,2.695,1.113,2.695,2.549s-1.201,2.549-2.695,2.549s-2.666-1.113-2.666-2.549S747.787,150.723,749.281,150.723z"/>
	<path fill="#6D0020" d="M756.518,191.65H761v-13.682v-13.535h-4.131v-3.516h8.555c0,0,0.117,3.105,0.146,3.105
		c2.168-2.314,5.039-3.516,8.203-3.516c7.295,0,11.689,5.479,11.689,12.275c0,6.709-4.629,12.275-11.748,12.275
		c-3.164,0-6.182-1.084-8.379-3.105c0,0.674,0.029,9.697,0.029,9.697l4.775,0.029v3.604h-13.623V191.65z M780.922,172.637
		c0-4.775-2.93-8.467-7.793-8.467c-4.395,0-7.764,2.959-7.852,6.885c-0.029,0.059-0.029,3.457-0.029,3.516
		c0.234,3.926,3.34,6.709,7.676,6.709C778.021,181.279,780.922,177.734,780.922,172.637z"/>
</g>
<g>
	<path fill="#808285" d="M236.485,218.449h2.285v-6.592v-6.621h-2.285v-1.816h7.295h6.929v4.702h-1.919v-2.842h-7.69v5.435h5.303
		l0.19-1.67h1.274v5.259h-1.289l-0.19-1.699h-5.259v5.845h7.69v-2.944h1.89v4.805h-6.929h-7.295V218.449z"/>
	<path fill="#808285" d="M252.511,218.508h1.86l3.721-4.248l-3.56-3.984h-1.743v-1.758h5.713v1.802h-1.67l2.388,2.666l2.3-2.681
		h-1.406v-1.787h5.713v1.802h-2.036l-3.413,3.94l3.823,4.277h1.685v1.772h-5.801v-1.816h1.831l-2.695-2.974l-2.534,3.003h1.699
		v1.787h-5.874V218.508z"/>
	<path fill="#808285" d="M266.837,214.333c0-3.164,2.344-6.021,5.903-6.021c1.274,0,2.637,0.293,3.311,1.26l0.015-1.055h1.948v4.219
		h-1.89c-0.308-1.699-1.23-2.534-3.223-2.534c-2.417,0-3.735,1.729-3.735,4.102c0,2.578,1.377,4.395,3.794,4.395
		c1.567,0,2.856-0.659,3.589-1.948l1.772,0.806c-0.894,1.963-2.827,3.032-5.42,3.032
		C268.609,220.588,266.837,217.204,266.837,214.333z"/>
	<path fill="#808285" d="M287.389,214.992l-5.01-0.029c0.308,2.271,1.685,3.794,4.204,3.794c1.523,0,2.974-0.557,3.867-1.626
		l1.875,0.82c-1.128,1.67-3.208,2.637-5.801,2.637c-4.058,0-6.548-2.754-6.548-6.167c0-3.574,2.798-6.108,6.489-6.108
		c3.882,0,5.859,2.988,5.859,6.401c0,0.073,0,0.161,0,0.249L287.389,214.992z M286.378,213.469h3.838
		c-0.308-1.86-1.582-3.472-3.721-3.472c-2.358,0-3.721,1.479-4.058,3.472H286.378z"/>
	<path fill="#808285" d="M293.351,223.884h2.241v-6.841v-6.768h-2.065v-1.758h4.277c0,0,0.059,1.553,0.073,1.553
		c1.084-1.157,2.52-1.758,4.102-1.758c3.647,0,5.845,2.739,5.845,6.138c0,3.354-2.314,6.138-5.874,6.138
		c-1.582,0-3.091-0.542-4.189-1.553c0,0.337,0.015,4.849,0.015,4.849l2.388,0.015v1.802h-6.812V223.884z M305.553,214.377
		c0-2.388-1.465-4.233-3.896-4.233c-2.197,0-3.882,1.479-3.926,3.442c-0.015,0.029-0.015,1.729-0.015,1.758
		c0.117,1.963,1.67,3.354,3.838,3.354C304.103,218.698,305.553,216.926,305.553,214.377z"/>
	<path fill="#808285" d="M309.039,208.518h1.86v-2.461l2.168-1.787v4.248h2.388v1.787h-2.388v3.12c0,0.601,0,3.867,0.059,4.072
		c0.044,0.806,0.498,1.084,1.187,1.084c0.337,0,0.732-0.073,1.143-0.205v1.86c-0.513,0.132-1.084,0.234-1.582,0.234
		c-1.685,0-2.871-0.732-2.944-2.812c0,0-0.073-3.545-0.073-4.116v-3.237h-1.816V208.518z"/>
	<path fill="#808285" d="M317.125,218.493h1.978v-8.218h-1.978v-1.758h4.16v10.005h1.992v1.787h-6.152V218.493z M320.172,203.42
		c0.747,0,1.348,0.557,1.348,1.274s-0.601,1.274-1.348,1.274s-1.333-0.557-1.333-1.274S319.425,203.42,320.172,203.42z"/>
	<path fill="#808285" d="M324.435,214.421c0-3.384,2.417-6.108,6.255-6.108c3.809,0,6.24,2.725,6.24,6.108s-2.446,6.167-6.27,6.167
		C326.852,220.588,324.435,217.805,324.435,214.421z M334.586,214.421c0-2.388-1.509-4.233-3.926-4.233
		c-2.388,0-3.896,1.846-3.896,4.233s1.509,4.16,3.896,4.16C333.077,218.581,334.586,216.809,334.586,214.421z"/>
	<path fill="#808285" d="M338.541,218.508h2.095v-8.232h-2.183v-1.758h4.336c0,0,0.029,1.274,0.059,1.523
		c1.509-1.172,2.695-1.729,4.146-1.729c2.153,0,3.472,1.45,3.472,3.765c0,0.22-0.044,6.431-0.044,6.431l2.124,0.029v1.772h-5.889
		v-1.758h1.611v-5.669c0-1.729-0.439-2.695-1.831-2.695c-1.333,0-2.549,0.879-3.589,2.065v6.27h2.124v1.787h-6.431V218.508z"/>
	<path fill="#808285" d="M353.526,217.146c0-2.915,2.3-3.721,5.083-3.721c0.908,0,1.875,0.103,2.827,0.293v-1.421
		c0-1.641-1.318-2.256-2.871-2.256c-1.201,0-2.153,0.425-2.71,1.23l-2.051-0.571c0.894-1.538,2.637-2.388,5.054-2.388
		c3.691,0,4.761,1.875,4.761,3.882v6.343h2.109v1.772h-4.058c0,0-0.015-1.216-0.029-1.216c-1.553,1.128-2.666,1.538-4.131,1.538
		C355.035,220.632,353.526,218.947,353.526,217.146z M361.437,215.153c-0.63-0.015-1.626-0.234-2.681-0.234
		c-1.538,0-3.164,0.308-3.164,2.227c0,1.025,0.791,1.86,2.227,1.86c1.289,0,2.725-0.498,3.618-1.304V215.153z"/>
	<path fill="#808285" d="M366.051,218.508h2.227v-6.694v-6.621h-2.183v-1.772h4.365v15.103h1.948v1.787h-6.357V218.508z"/>
	<path fill="#808285" d="M379.981,217.146c0-2.915,2.3-3.721,5.083-3.721c0.908,0,1.875,0.103,2.827,0.293v-1.421
		c0-1.641-1.318-2.256-2.871-2.256c-1.201,0-2.153,0.425-2.71,1.23l-2.051-0.571c0.894-1.538,2.637-2.388,5.054-2.388
		c3.691,0,4.761,1.875,4.761,3.882v6.343h2.109v1.772h-4.058c0,0-0.015-1.216-0.029-1.216c-1.553,1.128-2.666,1.538-4.131,1.538
		C381.49,220.632,379.981,218.947,379.981,217.146z M387.892,215.153c-0.63-0.015-1.626-0.234-2.681-0.234
		c-1.538,0-3.164,0.308-3.164,2.227c0,1.025,0.791,1.86,2.227,1.86c1.289,0,2.725-0.498,3.618-1.304V215.153z"/>
	<path fill="#808285" d="M405.353,203.42v15.117h2.227v1.772h-4.453l-0.015-1.45c-1.245,1.201-2.563,1.729-4.189,1.729
		c-3.032,0-5.874-2.124-5.874-6.138c0-3.311,2.314-6.138,5.918-6.138c1.67,0,3.062,0.542,4.219,1.553
		c0-0.352-0.029-4.629-0.029-4.629l-2.344-0.044v-1.772H405.353z M403.185,215.139c0-0.073-0.015-1.772-0.015-1.831
		c-0.205-1.919-1.729-3.223-3.896-3.223c-2.388,0-3.896,1.89-3.896,4.321c0,2.549,1.436,4.351,3.926,4.351
		C401.588,218.757,403.185,217.233,403.185,215.139z"/>
	<path fill="#808285" d="M409.703,210.275h-2.139v-1.758h6.021v1.802h-1.699l1.436,3.735l1.421,3.604l1.421-3.604l1.436-3.75h-1.802
		v-1.787h5.889v1.802h-1.904l-4.014,10.151h-1.992L409.703,210.275z"/>
	<path fill="#808285" d="M422.521,218.493h1.978v-8.218h-1.978v-1.758h4.16v10.005h1.992v1.787h-6.152V218.493z M425.567,203.42
		c0.747,0,1.348,0.557,1.348,1.274s-0.601,1.274-1.348,1.274s-1.333-0.557-1.333-1.274S424.82,203.42,425.567,203.42z"/>
	<path fill="#808285" d="M430.24,216.457h1.89c-0.015,0.059-0.015,0.117-0.015,0.19c0,1.362,1.274,2.197,3.091,2.197
		c1.685,0,2.681-0.63,2.681-1.714c0-1.216-1.055-1.465-2.607-1.67c-2.109-0.278-5.068-0.923-5.068-3.735
		c0-1.948,1.714-3.413,4.351-3.413c1.143,0,2.212,0.249,2.974,0.615c0.015,0.015,0.073-0.41,0.073-0.41h1.846v3.75h-1.846
		c0,0-0.044-0.82-0.044-0.981c-0.688-0.835-1.641-1.26-2.915-1.26c-1.436,0-2.373,0.615-2.373,1.611c0,1.304,1.787,1.45,3.853,1.787
		c2.168,0.366,3.999,1.157,3.999,3.545c0,2.153-1.816,3.618-4.673,3.618c-1.348,0-2.388-0.264-3.267-0.864l-0.029,0.586h-1.919
		V216.457z"/>
	<path fill="#808285" d="M441.827,218.493h1.978v-8.218h-1.978v-1.758h4.16v10.005h1.992v1.787h-6.152V218.493z M444.874,203.42
		c0.747,0,1.348,0.557,1.348,1.274s-0.601,1.274-1.348,1.274s-1.333-0.557-1.333-1.274S444.127,203.42,444.874,203.42z"/>
	<path fill="#808285" d="M449.342,218.508h2.095v-8.232h-2.183v-1.758h4.336c0,0,0.029,1.274,0.059,1.523
		c1.509-1.172,2.695-1.729,4.146-1.729c2.153,0,3.472,1.45,3.472,3.765c0,0.22-0.044,6.431-0.044,6.431l2.124,0.029v1.772h-5.889
		v-1.758h1.611v-5.669c0-1.729-0.439-2.695-1.831-2.695c-1.333,0-2.549,0.879-3.589,2.065v6.27h2.124v1.787h-6.431V218.508z"/>
	<path fill="#808285" d="M465.777,224.221l1.377-1.523c0.996,0.718,2.183,1.069,3.369,1.069c1.743,0,3.955-0.879,3.999-3.501
		c0-0.059-0.044-1.26-0.044-1.318c-0.82,0.762-2.651,1.362-4.248,1.362c-3.633,0-5.859-2.607-5.859-5.742
		c0-3.384,2.329-6.255,5.947-6.255c1.567,0,2.93,0.527,4.146,1.611c0.015,0,0.044-1.406,0.044-1.406h4.38v1.758l-2.212,0.044
		c0,0,0.015,8.716,0.015,9.155c0,4.644-3.267,6.108-6.357,6.108C468.517,225.583,467.154,225.188,465.777,224.221z M474.537,215.344
		c0-0.029,0-1.772,0-1.831c-0.073-1.86-1.729-3.267-3.867-3.267c-2.461,0-3.97,1.919-3.97,4.263c0,2.197,1.421,3.97,3.926,3.97
		C472.721,218.479,474.537,217.087,474.537,215.344z"/>
	<path fill="#808285" d="M480.426,217.204h3.105v3.105h-3.105V217.204z"/>
	<path fill="#808285" d="M492.188,218.449h2.285v-6.592v-6.621h-2.285v-1.816h7.295h6.929v4.702h-1.919v-2.842h-7.69v5.435h5.303
		l0.19-1.67h1.274v5.259h-1.289l-0.19-1.699h-5.259v5.845h7.69v-2.944h1.89v4.805h-6.929h-7.295V218.449z"/>
	<path fill="#808285" d="M508.214,218.508h1.86l3.721-4.248l-3.56-3.984h-1.743v-1.758h5.713v1.802h-1.67l2.388,2.666l2.3-2.681
		h-1.406v-1.787h5.713v1.802h-2.036l-3.413,3.94l3.823,4.277h1.685v1.772h-5.801v-1.816h1.831l-2.695-2.974l-2.534,3.003h1.699
		v1.787h-5.874V218.508z"/>
	<path fill="#808285" d="M522.701,208.518h1.86v-2.461l2.168-1.787v4.248h2.388v1.787h-2.388v3.12c0,0.601,0,3.867,0.059,4.072
		c0.044,0.806,0.498,1.084,1.187,1.084c0.337,0,0.732-0.073,1.143-0.205v1.86c-0.513,0.132-1.084,0.234-1.582,0.234
		c-1.685,0-2.871-0.732-2.944-2.812c0,0-0.073-3.545-0.073-4.116v-3.237h-1.816V208.518z"/>
	<path fill="#808285" d="M530.86,218.508h2.358v-8.232h-2.446v-1.758h4.146c0,0,0.073,2.3,0.103,2.563
		c0.791-1.875,2.256-2.769,3.911-2.769c0.22,0,1.743,0.059,1.743,0.059l-0.073,2.051c-0.044-0.029-1.289-0.044-1.436-0.044
		c-2.886,0-3.75,1.699-3.75,4.365v3.779h2.578v1.787h-7.134V218.508z"/>
	<path fill="#808285" d="M541.671,217.146c0-2.915,2.3-3.721,5.083-3.721c0.908,0,1.875,0.103,2.827,0.293v-1.421
		c0-1.641-1.318-2.256-2.871-2.256c-1.201,0-2.153,0.425-2.71,1.23l-2.051-0.571c0.894-1.538,2.637-2.388,5.054-2.388
		c3.691,0,4.761,1.875,4.761,3.882v6.343h2.109v1.772h-4.058c0,0-0.015-1.216-0.029-1.216c-1.553,1.128-2.666,1.538-4.131,1.538
		C543.18,220.632,541.671,218.947,541.671,217.146z M549.581,215.153c-0.63-0.015-1.626-0.234-2.681-0.234
		c-1.538,0-3.164,0.308-3.164,2.227c0,1.025,0.791,1.86,2.227,1.86c1.289,0,2.725-0.498,3.618-1.304V215.153z"/>
	<path fill="#808285" d="M554.723,214.421c0-3.384,2.417-6.108,6.255-6.108c3.809,0,6.24,2.725,6.24,6.108s-2.446,6.167-6.27,6.167
		C557.14,220.588,554.723,217.805,554.723,214.421z M564.874,214.421c0-2.388-1.509-4.233-3.926-4.233
		c-2.388,0-3.896,1.846-3.896,4.233s1.509,4.16,3.896,4.16C563.365,218.581,564.874,216.809,564.874,214.421z"/>
	<path fill="#808285" d="M568.844,218.508h2.358v-8.232h-2.446v-1.758h4.146c0,0,0.073,2.3,0.103,2.563
		c0.791-1.875,2.256-2.769,3.911-2.769c0.22,0,1.743,0.059,1.743,0.059l-0.073,2.051c-0.044-0.029-1.289-0.044-1.436-0.044
		c-2.886,0-3.75,1.699-3.75,4.365v3.779h2.578v1.787h-7.134V218.508z"/>
	<path fill="#808285" d="M591.842,203.42v15.117h2.227v1.772h-4.453l-0.015-1.45c-1.245,1.201-2.563,1.729-4.189,1.729
		c-3.032,0-5.874-2.124-5.874-6.138c0-3.311,2.314-6.138,5.918-6.138c1.67,0,3.062,0.542,4.219,1.553
		c0-0.352-0.029-4.629-0.029-4.629l-2.344-0.044v-1.772H591.842z M589.674,215.139c0-0.073-0.015-1.772-0.015-1.831
		c-0.205-1.919-1.729-3.223-3.896-3.223c-2.388,0-3.896,1.89-3.896,4.321c0,2.549,1.436,4.351,3.926,4.351
		C588.077,218.757,589.674,217.233,589.674,215.139z"/>
	<path fill="#808285" d="M595.24,218.493h1.978v-8.218h-1.978v-1.758h4.16v10.005h1.992v1.787h-6.152V218.493z M598.287,203.42
		c0.747,0,1.348,0.557,1.348,1.274s-0.601,1.274-1.348,1.274s-1.333-0.557-1.333-1.274S597.54,203.42,598.287,203.42z"/>
	<path fill="#808285" d="M602.755,218.508h2.095v-8.232h-2.183v-1.758h4.336c0,0,0.029,1.274,0.059,1.523
		c1.509-1.172,2.695-1.729,4.146-1.729c2.153,0,3.472,1.45,3.472,3.765c0,0.22-0.044,6.431-0.044,6.431l2.124,0.029v1.772h-5.889
		v-1.758h1.611v-5.669c0-1.729-0.439-2.695-1.831-2.695c-1.333,0-2.549,0.879-3.589,2.065v6.27h2.124v1.787h-6.431V218.508z"/>
	<path fill="#808285" d="M617.74,217.146c0-2.915,2.3-3.721,5.083-3.721c0.908,0,1.875,0.103,2.827,0.293v-1.421
		c0-1.641-1.318-2.256-2.871-2.256c-1.201,0-2.153,0.425-2.71,1.23l-2.051-0.571c0.894-1.538,2.637-2.388,5.054-2.388
		c3.691,0,4.761,1.875,4.761,3.882v6.343h2.109v1.772h-4.058c0,0-0.015-1.216-0.029-1.216c-1.553,1.128-2.666,1.538-4.131,1.538
		C619.249,220.632,617.74,218.947,617.74,217.146z M625.65,215.153c-0.63-0.015-1.626-0.234-2.681-0.234
		c-1.538,0-3.164,0.308-3.164,2.227c0,1.025,0.791,1.86,2.227,1.86c1.289,0,2.725-0.498,3.618-1.304V215.153z"/>
	<path fill="#808285" d="M630.895,218.508h2.358v-8.232h-2.446v-1.758h4.146c0,0,0.073,2.3,0.103,2.563
		c0.791-1.875,2.256-2.769,3.911-2.769c0.22,0,1.743,0.059,1.743,0.059l-0.073,2.051c-0.044-0.029-1.289-0.044-1.436-0.044
		c-2.886,0-3.75,1.699-3.75,4.365v3.779h2.578v1.787h-7.134V218.508z"/>
	<path fill="#808285" d="M643.492,225.539l0.059-1.787c0,0,0.82,0.146,1.611,0.146c1.406,0,1.875-0.498,3.018-4.629l-1.392,0.015
		l-3.867-9.009h-1.831v-1.758h5.947v1.802h-1.582l2.959,7.617h0.293l1.26-3.955l1.099-3.677h-1.685v-1.787h6.05v1.802h-1.89
		l-3.164,9.463c-1.318,3.721-1.934,5.947-4.746,5.947C644.532,225.729,643.492,225.539,643.492,225.539z"/>
	<path fill="#808285" d="M662.916,216.457h1.89c-0.015,0.059-0.015,0.117-0.015,0.19c0,1.362,1.274,2.197,3.091,2.197
		c1.685,0,2.681-0.63,2.681-1.714c0-1.216-1.055-1.465-2.607-1.67c-2.109-0.278-5.068-0.923-5.068-3.735
		c0-1.948,1.714-3.413,4.351-3.413c1.143,0,2.212,0.249,2.974,0.615c0.015,0.015,0.073-0.41,0.073-0.41h1.846v3.75h-1.846
		c0,0-0.044-0.82-0.044-0.981c-0.688-0.835-1.641-1.26-2.915-1.26c-1.436,0-2.373,0.615-2.373,1.611c0,1.304,1.787,1.45,3.853,1.787
		c2.168,0.366,3.999,1.157,3.999,3.545c0,2.153-1.816,3.618-4.673,3.618c-1.348,0-2.388-0.264-3.267-0.864l-0.029,0.586h-1.919
		V216.457z"/>
	<path fill="#808285" d="M683.497,218.845c-1.274,1.143-2.549,1.743-3.984,1.743c-2.578,0-3.633-1.582-3.633-4.102
		c0-0.234,0.029-6.167,0.029-6.167l-1.802-0.044v-1.758h3.984v7.866c0,1.523,0.483,2.373,1.831,2.373
		c1.362,0,2.666-0.879,3.574-2.109v-6.343h-2.124v-1.787h4.336v10.02h2.139v1.772h-4.277
		C683.57,220.31,683.526,219.094,683.497,218.845z"/>
	<path fill="#808285" d="M688.917,214.333c0-3.164,2.344-6.021,5.903-6.021c1.274,0,2.637,0.293,3.311,1.26l0.015-1.055h1.948v4.219
		h-1.89c-0.308-1.699-1.23-2.534-3.223-2.534c-2.417,0-3.735,1.729-3.735,4.102c0,2.578,1.377,4.395,3.794,4.395
		c1.567,0,2.856-0.659,3.589-1.948l1.772,0.806c-0.894,1.963-2.827,3.032-5.42,3.032
		C690.689,220.588,688.917,217.204,688.917,214.333z"/>
	<path fill="#808285" d="M702.086,214.333c0-3.164,2.344-6.021,5.903-6.021c1.274,0,2.637,0.293,3.311,1.26l0.015-1.055h1.948v4.219
		h-1.89c-0.308-1.699-1.23-2.534-3.223-2.534c-2.417,0-3.735,1.729-3.735,4.102c0,2.578,1.377,4.395,3.794,4.395
		c1.567,0,2.856-0.659,3.589-1.948l1.772,0.806c-0.894,1.963-2.827,3.032-5.42,3.032
		C703.858,220.588,702.086,217.204,702.086,214.333z"/>
	<path fill="#808285" d="M722.638,214.992l-5.01-0.029c0.308,2.271,1.685,3.794,4.204,3.794c1.523,0,2.974-0.557,3.867-1.626
		l1.875,0.82c-1.128,1.67-3.208,2.637-5.801,2.637c-4.058,0-6.548-2.754-6.548-6.167c0-3.574,2.798-6.108,6.489-6.108
		c3.882,0,5.859,2.988,5.859,6.401c0,0.073,0,0.161,0,0.249L722.638,214.992z M721.627,213.469h3.838
		c-0.308-1.86-1.582-3.472-3.721-3.472c-2.358,0-3.721,1.479-4.058,3.472H721.627z"/>
	<path fill="#808285" d="M729.537,216.457h1.89c-0.015,0.059-0.015,0.117-0.015,0.19c0,1.362,1.274,2.197,3.091,2.197
		c1.685,0,2.681-0.63,2.681-1.714c0-1.216-1.055-1.465-2.607-1.67c-2.109-0.278-5.068-0.923-5.068-3.735
		c0-1.948,1.714-3.413,4.351-3.413c1.143,0,2.212,0.249,2.974,0.615c0.015,0.015,0.073-0.41,0.073-0.41h1.846v3.75h-1.846
		c0,0-0.044-0.82-0.044-0.981c-0.688-0.835-1.641-1.26-2.915-1.26c-1.436,0-2.373,0.615-2.373,1.611c0,1.304,1.787,1.45,3.853,1.787
		c2.168,0.366,3.999,1.157,3.999,3.545c0,2.153-1.816,3.618-4.673,3.618c-1.348,0-2.388-0.264-3.267-0.864l-0.029,0.586h-1.919
		V216.457z"/>
	<path fill="#808285" d="M741.388,216.457h1.89c-0.015,0.059-0.015,0.117-0.015,0.19c0,1.362,1.274,2.197,3.091,2.197
		c1.685,0,2.681-0.63,2.681-1.714c0-1.216-1.055-1.465-2.607-1.67c-2.109-0.278-5.068-0.923-5.068-3.735
		c0-1.948,1.714-3.413,4.351-3.413c1.143,0,2.212,0.249,2.974,0.615c0.015,0.015,0.073-0.41,0.073-0.41h1.846v3.75h-1.846
		c0,0-0.044-0.82-0.044-0.981c-0.688-0.835-1.641-1.26-2.915-1.26c-1.436,0-2.373,0.615-2.373,1.611c0,1.304,1.787,1.45,3.853,1.787
		c2.168,0.366,3.999,1.157,3.999,3.545c0,2.153-1.816,3.618-4.673,3.618c-1.348,0-2.388-0.264-3.267-0.864l-0.029,0.586h-1.919
		V216.457z"/>
	<path fill="#808285" d="M753.59,217.204h3.105v3.105h-3.105V217.204z"/>
</g>
</svg>
