<?xml version="1.0" encoding="utf-8"?>
<!-- Generator: Adobe Illustrator 16.0.4, SVG Export Plug-In . SVG Version: 6.00 Build 0)  -->
<!DOCTYPE svg PUBLIC "-//W3C//DTD SVG 1.1//EN" "http://www.w3.org/Graphics/SVG/1.1/DTD/svg11.dtd">
<svg version="1.1" id="Layer_1" xmlns="http://www.w3.org/2000/svg" xmlns:xlink="http://www.w3.org/1999/xlink" x="0px" y="0px"
	 width="612px" height="792px" viewBox="0 0 612 792" enable-background="new 0 0 612 792" xml:space="preserve">
<g>
	<path fill="#660F0F" d="M330.373,317.463l12.533,0.032c2.107,0.005,15.857,1.593,16.07,4.699c0.319,5.547-13.988,5.51-16.096,5.505
		l-12.534-0.033l-9.679,11.4l2.439,0.006c1.886,0.004,3.104,1.118,3.1,2.67c-0.006,2.329-1.229,2.992-5.775,2.98l-3.993-0.01
		l-6.121,8.081l2.884,0.007c1.553,0.004,2.882,1.117,2.877,2.67c-0.004,1.775-1.782,2.99-4,2.984l-5.878-0.015
		c-8.236,11.071-10.572,13.616-12.791,13.611c-1.553-0.004-4.211-1.564-4.096-3.227c0.002-0.776,0.114-1.22,1.45-3.324
		c1.225-1.882,5.459-9.192,9.028-16.836c4.015-8.642,7.363-16.951,7.369-18.948c0.003-1.331-1.548-1.779-5.208-1.899
		c0,0-12.644-0.143-18.521-0.823c-2.329-0.228-3.327-0.452-5.988-0.903c-2.667,2.433-7.571,11.405-10.345,11.731
		c0,0-4.328,0.765-5.435-0.236c0.006-2.218,3.133-10.64,5.141-15.183c0,0-5.069-12.99-5.063-15.209
		c1.112-0.995,5.436-0.208,5.436-0.208c2.772,0.34,7.629,9.336,10.285,11.784c2.663-0.437,3.663-0.656,5.992-0.873
		c5.88-0.65,18.525-0.729,18.525-0.729c3.661-0.101,5.214-0.541,5.218-1.872c0.004-1.997-3.301-10.323-7.272-18.985
		c-3.53-7.662-7.726-14.993-8.941-16.882c-1.326-2.111-1.435-2.555-1.433-3.332c-0.106-1.664,2.56-3.209,4.112-3.206
		c2.218,0.006,4.542,2.563,12.72,13.675l5.879,0.015c2.218,0.006,3.99,1.23,3.984,3.004c-0.004,1.554-1.337,2.659-2.891,2.655
		l-2.883-0.007l6.079,8.113l3.993,0.01c4.547,0.012,5.766,0.68,5.76,3.01c-0.004,1.552-1.227,2.659-3.111,2.654l-2.441-0.006
		L330.373,317.463z"/>
</g>
</svg>
