<?xml version="1.0" encoding="utf-8"?>
<!-- Generator: Adobe Illustrator 16.0.4, SVG Export Plug-In . SVG Version: 6.00 Build 0)  -->
<!DOCTYPE svg PUBLIC "-//W3C//DTD SVG 1.1//EN" "http://www.w3.org/Graphics/SVG/1.1/DTD/svg11.dtd">
<svg version="1.1" id="Layer_1" xmlns="http://www.w3.org/2000/svg" xmlns:xlink="http://www.w3.org/1999/xlink" x="0px" y="0px"
	 width="50px" height="50px" viewBox="0 0 50 50" enable-background="new 0 0 50 50" xml:space="preserve">
<g>
	<path fill="#6D0020" d="M23.099,23.237c-2.663,0-4.833-2.159-4.833-4.821s2.171-4.833,4.833-4.833c2.662,0,4.833,2.171,4.833,4.833
		S25.761,23.237,23.099,23.237z M26.001,19.507c-0.744,0.959-1.691,1.379-2.879,1.379c-1.223,0-2.039-0.36-2.794-1.403l-0.492,0.576
		c0.876,1.007,2.003,1.619,3.286,1.619c1.319,0,2.483-0.636,3.347-1.643L26.001,19.507z M21.695,16.041
		C21.312,16.041,21,16.461,21,17c0,0.528,0.312,0.959,0.696,0.959c0.372,0,0.684-0.432,0.684-0.959
		C22.379,16.461,22.067,16.041,21.695,16.041z M24.586,16.041c-0.384,0-0.696,0.42-0.696,0.959c0,0.528,0.312,0.959,0.696,0.959
		c0.371,0,0.684-0.432,0.684-0.959C25.27,16.461,24.957,16.041,24.586,16.041z"/>
</g>
</svg>
